<?xml version="1.0" standalone="no"?><!DOCTYPE svg PUBLIC "-//W3C//DTD SVG 1.1//EN" "http://www.w3.org/Graphics/SVG/1.1/DTD/svg11.dtd"><svg t="1574388731699" class="icon" viewBox="0 0 1024 1024" version="1.1" xmlns="http://www.w3.org/2000/svg" p-id="4894" xmlns:xlink="http://www.w3.org/1999/xlink" width="64" height="64"><defs><style type="text/css"></style></defs><path d="M496.894977 959.696462c197.576891 0 316.605821-185.357592 316.605821-472.753137 0-140.074246-30.210046-247.545956-90.027409-318.79058-53.774741-65.810868-131.113153-103.849206-223.557612-103.849206-166.761048 0-289.415552 128.602983-289.415552 299.470559 0 160.000064 122.04973 282.565541 289.415552 282.565541 136.551002 0 256.183683-94.188172 282.770202-213.734896l0.604774 0c0.603751 0 0.603751 0 0.603751 0 0.604774 18.717294 1.208525 42.264593 0.604774 59.773362-6.042623 269.282003-108.153232 439.544805-287.603277 439.544805-129.904629 0-217.514989-80.300884-234.432287-183.54634l-30.211069 0C250.377444 871.545796 352.489076 959.696462 496.894977 959.696462zM501.124302 618.566084c-152.86455 0-260.413008-115.320469-260.413008-254.790964 0-153.961534 110.570281-271.697005 259.205507-271.697005 152.260799 0 266.456654 123.772978 266.456654 278.338263C766.372431 500.226862 645.530203 618.566084 501.124302 618.566084z" p-id="4895"></path></svg>